<?xml version="1.0" encoding="UTF-8" standalone="no"?>
<!DOCTYPE svg PUBLIC "-//W3C//DTD SVG 1.1//EN" "http://www.w3.org/Graphics/SVG/1.1/DTD/svg11.dtd">
<svg width="100%" height="100%" viewBox="0 0 64 64" version="1.1" xmlns="http://www.w3.org/2000/svg" xmlns:xlink="http://www.w3.org/1999/xlink" xml:space="preserve" xmlns:serif="http://www.serif.com/" style="fill-rule:evenodd;clip-rule:evenodd;stroke-linecap:round;stroke-linejoin:round;stroke-miterlimit:1;">
    <g transform="matrix(1.04152,0,0,1.16846,-2.32983,-4.32987)">
        <g id="Card">
            <path d="M53.333,9.696C53.333,8.561 52.828,7.473 51.927,6.671C51.027,5.868 49.806,5.417 48.533,5.417C40.692,5.417 25.23,5.417 17.39,5.417C16.117,5.417 14.896,5.868 13.996,6.671C13.095,7.473 12.589,8.561 12.589,9.696C12.589,19.367 12.589,42.817 12.589,52.488C12.589,53.623 13.095,54.711 13.996,55.513C14.896,56.316 16.117,56.767 17.39,56.767C25.23,56.767 40.692,56.767 48.533,56.767C49.806,56.767 51.027,56.316 51.927,55.513C52.828,54.711 53.333,53.623 53.333,52.488C53.333,42.817 53.333,19.367 53.333,9.696Z" style="fill:rgb(255,217,0);"/>
            <clipPath id="_clip1">
                <path d="M53.333,9.696C53.333,8.561 52.828,7.473 51.927,6.671C51.027,5.868 49.806,5.417 48.533,5.417C40.692,5.417 25.23,5.417 17.39,5.417C16.117,5.417 14.896,5.868 13.996,6.671C13.095,7.473 12.589,8.561 12.589,9.696C12.589,19.367 12.589,42.817 12.589,52.488C12.589,53.623 13.095,54.711 13.996,55.513C14.896,56.316 16.117,56.767 17.39,56.767C25.23,56.767 40.692,56.767 48.533,56.767C49.806,56.767 51.027,56.316 51.927,55.513C52.828,54.711 53.333,53.623 53.333,52.488C53.333,42.817 53.333,19.367 53.333,9.696Z"/>
            </clipPath>
            <g clip-path="url(#_clip1)">
                <g transform="matrix(0.960138,0,0,0.855826,15.5406,14.7541)">
                    <g transform="matrix(22,0,0,22,0,15.1787)">
                        <path d="M0.379,0.011L0.05,-0.266L0.379,-0.543L0.455,-0.466L0.213,-0.267L0.455,-0.066L0.379,0.011Z" style="fill:rgb(255,240,155);fill-rule:nonzero;"/>
                    </g>
                    <g transform="matrix(22,0,0,22,12.0957,15.1787)">
                        <path d="M0.151,0.105L0.035,0.105L0.376,-0.69L0.492,-0.69L0.151,0.105Z" style="fill:rgb(255,240,155);fill-rule:nonzero;"/>
                    </g>
                    <g transform="matrix(22,0,0,22,24.1914,15.1787)">
                        <path d="M0.171,-0.543L0.5,-0.266L0.171,0.011L0.095,-0.066L0.337,-0.265L0.095,-0.466L0.171,-0.543Z" style="fill:rgb(255,240,155);fill-rule:nonzero;"/>
                    </g>
                </g>
            </g>
            <path d="M53.333,9.696C53.333,8.561 52.828,7.473 51.927,6.671C51.027,5.868 49.806,5.417 48.533,5.417C40.692,5.417 25.23,5.417 17.39,5.417C16.117,5.417 14.896,5.868 13.996,6.671C13.095,7.473 12.589,8.561 12.589,9.696C12.589,19.367 12.589,42.817 12.589,52.488C12.589,53.623 13.095,54.711 13.996,55.513C14.896,56.316 16.117,56.767 17.39,56.767C25.23,56.767 40.692,56.767 48.533,56.767C49.806,56.767 51.027,56.316 51.927,55.513C52.828,54.711 53.333,53.623 53.333,52.488C53.333,42.817 53.333,19.367 53.333,9.696Z" style="fill:none;stroke:rgb(228,194,0);stroke-width:4.52px;"/>
        </g>
    </g>
    <g id="Text" transform="matrix(1.2857,0,0,1.2857,1.57934,-16.0026)">
        <g transform="matrix(1.19677,0,0,0.967742,-2.01631,10.6018)">
            <path d="M40.952,34.009C40.952,32.9 40.225,32 39.328,32C32.984,32 9.926,32 3.583,32C2.686,32 1.958,32.9 1.958,34.009C1.958,36.818 1.958,41.888 1.958,44.696C1.958,45.806 2.686,46.705 3.583,46.705C9.926,46.705 32.984,46.705 39.328,46.705C40.225,46.705 40.952,45.806 40.952,44.696C40.952,41.888 40.952,36.818 40.952,34.009Z" style="fill:rgb(255,241,163);stroke:rgb(121,114,77);stroke-width:2.14px;"/>
        </g>
        <g transform="matrix(0.777783,0,0,0.777783,2.21316,13.8742)">
            <g transform="matrix(18,0,0,18,1.35735,50.8575)">
                <path d="M0.536,-0.081L0.502,-0.171L0.211,-0.171L0.177,-0.079C0.163,-0.043 0.152,-0.019 0.143,-0.007C0.133,0.006 0.118,0.012 0.096,0.012C0.078,0.012 0.062,0.006 0.048,-0.008C0.034,-0.021 0.027,-0.036 0.027,-0.053C0.027,-0.063 0.028,-0.073 0.032,-0.083C0.035,-0.094 0.04,-0.108 0.048,-0.127L0.231,-0.592C0.236,-0.605 0.242,-0.621 0.25,-0.64C0.257,-0.659 0.265,-0.674 0.273,-0.687C0.281,-0.699 0.292,-0.709 0.306,-0.717C0.319,-0.724 0.336,-0.728 0.356,-0.728C0.376,-0.728 0.393,-0.724 0.406,-0.717C0.42,-0.709 0.431,-0.699 0.439,-0.687C0.448,-0.675 0.455,-0.662 0.46,-0.648C0.466,-0.634 0.473,-0.616 0.482,-0.593L0.669,-0.131C0.684,-0.096 0.691,-0.07 0.691,-0.054C0.691,-0.038 0.684,-0.022 0.67,-0.009C0.656,0.005 0.64,0.012 0.62,0.012C0.609,0.012 0.599,0.01 0.591,0.006C0.583,0.002 0.576,-0.003 0.57,-0.01C0.565,-0.017 0.559,-0.028 0.552,-0.043C0.546,-0.057 0.541,-0.07 0.536,-0.081ZM0.249,-0.28L0.463,-0.28L0.355,-0.575L0.249,-0.28Z" style="fill-rule:nonzero;"/>
            </g>
            <g transform="matrix(18,0,0,18,14.3036,50.8575)">
                <path d="M0.168,-0.716L0.357,-0.716C0.406,-0.716 0.448,-0.711 0.483,-0.702C0.519,-0.693 0.55,-0.676 0.579,-0.651C0.654,-0.587 0.691,-0.49 0.691,-0.36C0.691,-0.317 0.687,-0.278 0.68,-0.242C0.672,-0.207 0.661,-0.175 0.645,-0.146C0.629,-0.118 0.609,-0.092 0.585,-0.07C0.566,-0.053 0.545,-0.039 0.522,-0.028C0.499,-0.018 0.475,-0.011 0.448,-0.006C0.422,-0.002 0.393,-0 0.36,-0L0.171,-0C0.145,-0 0.125,-0.004 0.111,-0.012C0.098,-0.02 0.089,-0.031 0.085,-0.046C0.081,-0.06 0.079,-0.079 0.079,-0.102L0.079,-0.627C0.079,-0.658 0.086,-0.681 0.1,-0.695C0.114,-0.709 0.137,-0.716 0.168,-0.716ZM0.224,-0.601L0.224,-0.115L0.334,-0.115C0.358,-0.115 0.377,-0.116 0.391,-0.117C0.404,-0.118 0.418,-0.122 0.433,-0.127C0.448,-0.132 0.46,-0.139 0.471,-0.149C0.52,-0.19 0.544,-0.261 0.544,-0.361C0.544,-0.431 0.533,-0.484 0.512,-0.52C0.491,-0.555 0.464,-0.577 0.433,-0.587C0.402,-0.596 0.364,-0.601 0.32,-0.601L0.224,-0.601Z" style="fill-rule:nonzero;"/>
            </g>
            <g transform="matrix(18,0,0,18,27.6279,50.8575)">
                <path d="M0.32,-0.108L0.205,-0.564L0.205,-0.07C0.205,-0.042 0.199,-0.022 0.187,-0.008C0.175,0.005 0.158,0.012 0.138,0.012C0.119,0.012 0.103,0.005 0.09,-0.008C0.078,-0.022 0.072,-0.042 0.072,-0.07L0.072,-0.636C0.072,-0.667 0.08,-0.689 0.096,-0.699C0.112,-0.71 0.134,-0.716 0.162,-0.716L0.207,-0.716C0.234,-0.716 0.254,-0.713 0.266,-0.708C0.278,-0.704 0.287,-0.695 0.293,-0.682C0.299,-0.669 0.306,-0.649 0.313,-0.62L0.417,-0.228L0.521,-0.62C0.528,-0.649 0.535,-0.669 0.541,-0.682C0.547,-0.695 0.556,-0.704 0.568,-0.708C0.58,-0.713 0.6,-0.716 0.627,-0.716L0.672,-0.716C0.7,-0.716 0.722,-0.71 0.738,-0.699C0.754,-0.689 0.762,-0.667 0.762,-0.636L0.762,-0.07C0.762,-0.042 0.756,-0.022 0.744,-0.008C0.732,0.005 0.715,0.012 0.695,0.012C0.676,0.012 0.66,0.005 0.647,-0.008C0.635,-0.022 0.629,-0.042 0.629,-0.07L0.629,-0.564L0.514,-0.108C0.507,-0.078 0.501,-0.057 0.496,-0.043C0.491,-0.029 0.482,-0.016 0.47,-0.005C0.457,0.007 0.439,0.012 0.417,0.012C0.4,0.012 0.386,0.009 0.374,0.001C0.362,-0.006 0.353,-0.015 0.347,-0.027C0.34,-0.038 0.335,-0.051 0.331,-0.065C0.328,-0.079 0.324,-0.093 0.32,-0.108Z" style="fill-rule:nonzero;"/>
            </g>
            <g transform="matrix(18,0,0,18,42.622,50.8575)">
                <path d="M0.052,-0.139L0.212,-0.373L0.077,-0.581C0.064,-0.601 0.055,-0.619 0.049,-0.633C0.042,-0.648 0.039,-0.661 0.039,-0.675C0.039,-0.688 0.045,-0.701 0.057,-0.712C0.07,-0.723 0.084,-0.728 0.102,-0.728C0.122,-0.728 0.138,-0.722 0.149,-0.71C0.16,-0.698 0.176,-0.676 0.196,-0.644L0.303,-0.47L0.418,-0.644C0.427,-0.659 0.435,-0.671 0.442,-0.682C0.449,-0.692 0.455,-0.701 0.461,-0.708C0.468,-0.714 0.475,-0.719 0.482,-0.723C0.49,-0.726 0.499,-0.728 0.509,-0.728C0.527,-0.728 0.542,-0.723 0.553,-0.712C0.565,-0.701 0.571,-0.688 0.571,-0.673C0.571,-0.651 0.558,-0.621 0.533,-0.584L0.392,-0.373L0.544,-0.139C0.558,-0.119 0.568,-0.102 0.574,-0.088C0.58,-0.075 0.583,-0.062 0.583,-0.05C0.583,-0.038 0.58,-0.028 0.575,-0.019C0.569,-0.009 0.561,-0.002 0.551,0.004C0.541,0.009 0.53,0.012 0.517,0.012C0.503,0.012 0.492,0.009 0.482,0.004C0.473,-0.002 0.465,-0.009 0.459,-0.018C0.454,-0.026 0.443,-0.042 0.427,-0.067L0.301,-0.265L0.167,-0.061C0.157,-0.045 0.149,-0.033 0.145,-0.027C0.14,-0.02 0.135,-0.014 0.129,-0.008C0.123,-0.002 0.115,0.003 0.107,0.007C0.098,0.01 0.089,0.012 0.077,0.012C0.06,0.012 0.045,0.007 0.033,-0.004C0.022,-0.015 0.016,-0.03 0.016,-0.051C0.016,-0.075 0.028,-0.104 0.052,-0.139Z" style="fill-rule:nonzero;"/>
            </g>
        </g>
    </g>
</svg>
