<?xml version="1.0" encoding="UTF-8" standalone="no"?>
<!DOCTYPE svg PUBLIC "-//W3C//DTD SVG 1.1//EN" "http://www.w3.org/Graphics/SVG/1.1/DTD/svg11.dtd">
<svg width="100%" height="100%" viewBox="0 0 64 64" version="1.1" xmlns="http://www.w3.org/2000/svg" xmlns:xlink="http://www.w3.org/1999/xlink" xml:space="preserve" xmlns:serif="http://www.serif.com/" style="fill-rule:evenodd;clip-rule:evenodd;stroke-linejoin:round;stroke-miterlimit:2;">
    <g transform="matrix(1.07623,0,0,1.20741,-3.47416,-5.54086)">
        <g id="Card">
            <path d="M53.333,7.074C53.333,6.159 52.501,5.417 51.475,5.417C44.682,5.417 21.241,5.417 14.448,5.417C13.421,5.417 12.589,6.159 12.589,7.074C12.589,14.814 12.589,47.37 12.589,55.11C12.589,56.025 13.421,56.767 14.448,56.767C21.241,56.767 44.682,56.767 51.475,56.767C52.501,56.767 53.333,56.025 53.333,55.11C53.333,47.37 53.333,14.814 53.333,7.074Z" style="fill:rgb(255,217,0);"/>
            <clipPath id="_clip1">
                <path d="M53.333,7.074C53.333,6.159 52.501,5.417 51.475,5.417C44.682,5.417 21.241,5.417 14.448,5.417C13.421,5.417 12.589,6.159 12.589,7.074C12.589,14.814 12.589,47.37 12.589,55.11C12.589,56.025 13.421,56.767 14.448,56.767C21.241,56.767 44.682,56.767 51.475,56.767C52.501,56.767 53.333,56.025 53.333,55.11C53.333,47.37 53.333,14.814 53.333,7.074Z"/>
            </clipPath>
            <g clip-path="url(#_clip1)">
                <g transform="matrix(0.929166,0,0,0.828218,17.1781,7.17113)">
                    <g transform="matrix(12,0,0,12,0,8.2793)">
                        <path d="M0.379,0.011L0.05,-0.266L0.379,-0.543L0.455,-0.466L0.213,-0.267L0.455,-0.066L0.379,0.011Z" style="fill:rgb(255,240,155);fill-rule:nonzero;"/>
                    </g>
                    <g transform="matrix(12,0,0,12,6.59766,8.2793)">
                        <path d="M0.471,-0.478C0.471,-0.451 0.467,-0.426 0.459,-0.405C0.45,-0.383 0.439,-0.364 0.423,-0.348C0.408,-0.333 0.389,-0.32 0.367,-0.31C0.345,-0.3 0.321,-0.294 0.294,-0.29L0.289,-0.198L0.187,-0.198L0.178,-0.382L0.249,-0.382C0.265,-0.382 0.279,-0.384 0.29,-0.389C0.302,-0.393 0.311,-0.399 0.319,-0.407C0.326,-0.415 0.331,-0.424 0.335,-0.434C0.338,-0.445 0.34,-0.455 0.34,-0.467C0.34,-0.482 0.337,-0.497 0.33,-0.51C0.323,-0.524 0.313,-0.536 0.299,-0.546C0.284,-0.556 0.266,-0.564 0.245,-0.57C0.223,-0.576 0.197,-0.579 0.166,-0.579L0.137,-0.579L0.137,-0.69L0.171,-0.69C0.221,-0.69 0.265,-0.684 0.302,-0.672C0.34,-0.66 0.371,-0.644 0.396,-0.625C0.421,-0.605 0.44,-0.583 0.452,-0.557C0.465,-0.532 0.471,-0.505 0.471,-0.478ZM0.319,-0.067C0.319,-0.056 0.317,-0.046 0.313,-0.037C0.308,-0.027 0.303,-0.019 0.295,-0.012C0.288,-0.005 0.28,0.001 0.27,0.005C0.26,0.009 0.25,0.011 0.239,0.011C0.228,0.011 0.217,0.009 0.208,0.005C0.198,0.001 0.19,-0.005 0.183,-0.012C0.175,-0.019 0.17,-0.027 0.166,-0.037C0.161,-0.046 0.159,-0.056 0.159,-0.067C0.159,-0.078 0.161,-0.088 0.166,-0.097C0.17,-0.107 0.175,-0.115 0.183,-0.122C0.19,-0.129 0.198,-0.135 0.208,-0.139C0.217,-0.143 0.228,-0.145 0.239,-0.145C0.25,-0.145 0.26,-0.143 0.27,-0.139C0.28,-0.135 0.288,-0.129 0.295,-0.122C0.303,-0.115 0.308,-0.107 0.313,-0.097C0.317,-0.088 0.319,-0.078 0.319,-0.067Z" style="fill:rgb(255,240,155);fill-rule:nonzero;"/>
                    </g>
                    <g transform="matrix(12,0,0,12,13.1953,8.2793)">
                        <path d="M0.387,-0L0.274,-0.167L0.16,-0L0.016,-0L0.202,-0.25L0.026,-0.496L0.171,-0.496L0.282,-0.333L0.392,-0.496L0.526,-0.496L0.355,-0.251L0.535,-0L0.387,-0Z" style="fill:rgb(255,240,155);fill-rule:nonzero;"/>
                    </g>
                    <g transform="matrix(12,0,0,12,19.793,8.2793)">
                        <path d="M0.418,-0L0.418,-0.338C0.418,-0.35 0.418,-0.361 0.417,-0.37C0.416,-0.38 0.415,-0.387 0.413,-0.394C0.411,-0.4 0.408,-0.404 0.405,-0.407C0.401,-0.411 0.396,-0.412 0.389,-0.412C0.379,-0.412 0.369,-0.405 0.359,-0.392C0.35,-0.378 0.339,-0.355 0.326,-0.322L0.326,-0L0.224,-0L0.224,-0.338C0.224,-0.35 0.224,-0.361 0.223,-0.37C0.222,-0.38 0.221,-0.387 0.219,-0.394C0.217,-0.4 0.214,-0.404 0.21,-0.407C0.207,-0.411 0.201,-0.412 0.195,-0.412C0.186,-0.412 0.177,-0.405 0.167,-0.392C0.156,-0.378 0.145,-0.355 0.132,-0.322L0.132,-0L0.029,-0L0.029,-0.496L0.117,-0.496L0.119,-0.424C0.126,-0.438 0.133,-0.451 0.141,-0.461C0.148,-0.472 0.155,-0.48 0.164,-0.487C0.172,-0.494 0.18,-0.499 0.19,-0.501C0.199,-0.504 0.209,-0.506 0.221,-0.506C0.249,-0.506 0.27,-0.499 0.284,-0.484C0.299,-0.47 0.307,-0.45 0.309,-0.424C0.317,-0.438 0.325,-0.451 0.332,-0.461C0.34,-0.472 0.348,-0.48 0.356,-0.487C0.365,-0.494 0.373,-0.499 0.383,-0.501C0.393,-0.504 0.403,-0.506 0.415,-0.506C0.451,-0.506 0.478,-0.493 0.495,-0.468C0.512,-0.443 0.521,-0.405 0.521,-0.356L0.521,-0L0.418,-0Z" style="fill:rgb(255,240,155);fill-rule:nonzero;"/>
                    </g>
                    <g transform="matrix(12,0,0,12,26.3906,8.2793)">
                        <path d="M0.228,-0.597L0.088,-0.597L0.088,-0.69L0.35,-0.69L0.35,-0.093L0.493,-0.093L0.493,-0L0.071,-0L0.071,-0.093L0.228,-0.093L0.228,-0.597Z" style="fill:rgb(255,240,155);fill-rule:nonzero;"/>
                    </g>
                    <g transform="matrix(12,0,0,12,39.5859,8.2793)">
                        <path d="M0.345,-0L0.208,-0L0.011,-0.496L0.144,-0.496L0.247,-0.215L0.278,-0.124L0.308,-0.211L0.412,-0.496L0.54,-0.496L0.345,-0Z" style="fill:rgb(255,240,155);fill-rule:nonzero;"/>
                    </g>
                    <g transform="matrix(12,0,0,12,46.1836,8.2793)">
                        <path d="M0.5,-0.286C0.5,-0.278 0.5,-0.267 0.499,-0.254C0.499,-0.241 0.498,-0.229 0.497,-0.218L0.171,-0.218C0.171,-0.196 0.174,-0.177 0.181,-0.16C0.188,-0.144 0.197,-0.13 0.209,-0.118C0.221,-0.107 0.236,-0.099 0.253,-0.093C0.27,-0.087 0.289,-0.084 0.31,-0.084C0.334,-0.084 0.36,-0.086 0.387,-0.09C0.415,-0.093 0.444,-0.099 0.473,-0.108L0.473,-0.013C0.46,-0.01 0.447,-0.006 0.432,-0.003C0.417,-0 0.401,0.002 0.386,0.004C0.37,0.007 0.354,0.008 0.338,0.01C0.322,0.011 0.307,0.011 0.292,0.011C0.254,0.011 0.22,0.006 0.19,-0.005C0.16,-0.016 0.135,-0.031 0.114,-0.052C0.093,-0.073 0.077,-0.099 0.066,-0.13C0.055,-0.161 0.05,-0.197 0.05,-0.238C0.05,-0.278 0.055,-0.315 0.066,-0.348C0.077,-0.381 0.093,-0.409 0.113,-0.433C0.133,-0.456 0.158,-0.475 0.187,-0.488C0.216,-0.5 0.248,-0.507 0.283,-0.507C0.318,-0.507 0.349,-0.501 0.376,-0.49C0.403,-0.48 0.426,-0.464 0.444,-0.445C0.463,-0.425 0.476,-0.402 0.486,-0.375C0.495,-0.348 0.5,-0.318 0.5,-0.286ZM0.379,-0.303C0.379,-0.323 0.377,-0.34 0.372,-0.354C0.366,-0.369 0.359,-0.381 0.35,-0.39C0.341,-0.4 0.331,-0.407 0.319,-0.411C0.307,-0.416 0.294,-0.418 0.281,-0.418C0.251,-0.418 0.226,-0.408 0.207,-0.388C0.188,-0.368 0.176,-0.34 0.173,-0.303L0.379,-0.303Z" style="fill:rgb(255,240,155);fill-rule:nonzero;"/>
                    </g>
                    <g transform="matrix(12,0,0,12,0,20.2793)">
                        <path d="M0.379,0.011L0.05,-0.266L0.379,-0.543L0.455,-0.466L0.213,-0.267L0.455,-0.066L0.379,0.011Z" style="fill:rgb(255,240,155);fill-rule:nonzero;"/>
                    </g>
                    <g transform="matrix(12,0,0,12,6.59766,20.2793)">
                        <path d="M0.498,-0.193C0.498,-0.158 0.492,-0.128 0.479,-0.102C0.466,-0.076 0.448,-0.055 0.425,-0.038C0.402,-0.022 0.374,-0.009 0.342,-0.001C0.31,0.007 0.276,0.011 0.238,0.011C0.204,0.011 0.172,0.009 0.141,0.005C0.109,0.001 0.078,-0.005 0.048,-0.014L0.048,-0.133C0.063,-0.128 0.078,-0.123 0.095,-0.118C0.111,-0.114 0.127,-0.11 0.144,-0.106C0.16,-0.103 0.177,-0.1 0.193,-0.098C0.209,-0.096 0.225,-0.095 0.24,-0.095C0.263,-0.095 0.282,-0.097 0.298,-0.101C0.314,-0.105 0.327,-0.11 0.337,-0.117C0.347,-0.124 0.355,-0.132 0.359,-0.142C0.364,-0.151 0.366,-0.161 0.366,-0.173C0.366,-0.188 0.362,-0.202 0.353,-0.212C0.344,-0.223 0.332,-0.232 0.317,-0.24C0.303,-0.248 0.286,-0.256 0.267,-0.262C0.249,-0.269 0.23,-0.276 0.21,-0.283C0.191,-0.291 0.172,-0.299 0.153,-0.309C0.134,-0.318 0.118,-0.33 0.103,-0.344C0.088,-0.358 0.077,-0.374 0.068,-0.394C0.059,-0.413 0.054,-0.437 0.054,-0.464C0.054,-0.489 0.059,-0.513 0.068,-0.535C0.077,-0.558 0.091,-0.577 0.111,-0.594C0.13,-0.611 0.155,-0.624 0.186,-0.634C0.217,-0.644 0.254,-0.649 0.297,-0.649C0.31,-0.649 0.323,-0.648 0.337,-0.647C0.351,-0.646 0.364,-0.645 0.378,-0.643C0.391,-0.641 0.404,-0.639 0.417,-0.636C0.429,-0.634 0.441,-0.632 0.451,-0.629L0.451,-0.519C0.441,-0.523 0.429,-0.527 0.417,-0.53C0.405,-0.533 0.392,-0.536 0.379,-0.538C0.365,-0.541 0.352,-0.543 0.339,-0.544C0.326,-0.545 0.313,-0.546 0.301,-0.546C0.28,-0.546 0.262,-0.544 0.247,-0.541C0.232,-0.537 0.22,-0.533 0.211,-0.527C0.201,-0.521 0.195,-0.513 0.19,-0.504C0.186,-0.496 0.184,-0.486 0.184,-0.475C0.184,-0.462 0.189,-0.45 0.198,-0.441C0.206,-0.431 0.218,-0.422 0.233,-0.415C0.248,-0.407 0.265,-0.4 0.283,-0.393C0.302,-0.387 0.321,-0.379 0.341,-0.372C0.361,-0.364 0.38,-0.355 0.399,-0.346C0.417,-0.336 0.434,-0.324 0.449,-0.31C0.464,-0.296 0.476,-0.28 0.485,-0.26C0.494,-0.241 0.498,-0.219 0.498,-0.193Z" style="fill:rgb(255,240,155);fill-rule:nonzero;"/>
                    </g>
                    <g transform="matrix(12,0,0,12,13.1953,20.2793)">
                        <path d="M0.366,-0.054C0.349,-0.011 0.331,0.026 0.312,0.059C0.294,0.091 0.273,0.118 0.25,0.14C0.228,0.162 0.203,0.178 0.176,0.189C0.148,0.2 0.117,0.205 0.083,0.205C0.075,0.205 0.066,0.205 0.056,0.204C0.047,0.203 0.037,0.202 0.027,0.2L0.027,0.099C0.031,0.1 0.035,0.101 0.04,0.101C0.045,0.102 0.051,0.103 0.056,0.103C0.062,0.104 0.067,0.104 0.073,0.104C0.079,0.105 0.084,0.105 0.089,0.105C0.103,0.105 0.115,0.102 0.127,0.097C0.139,0.092 0.149,0.085 0.159,0.075C0.169,0.066 0.178,0.055 0.187,0.042C0.195,0.029 0.202,0.015 0.208,-0L0.011,-0.496L0.144,-0.496L0.247,-0.215L0.278,-0.124L0.308,-0.211L0.412,-0.496L0.54,-0.496L0.366,-0.054Z" style="fill:rgb(255,240,155);fill-rule:nonzero;"/>
                    </g>
                    <g transform="matrix(12,0,0,12,19.793,20.2793)">
                        <path d="M0.364,-0L0.364,-0.323C0.364,-0.378 0.344,-0.405 0.303,-0.405C0.283,-0.405 0.264,-0.397 0.245,-0.38C0.227,-0.364 0.208,-0.342 0.187,-0.314L0.187,-0L0.068,-0L0.068,-0.496L0.171,-0.496L0.174,-0.423C0.184,-0.436 0.194,-0.447 0.205,-0.458C0.216,-0.468 0.228,-0.477 0.241,-0.484C0.253,-0.491 0.267,-0.497 0.282,-0.501C0.296,-0.505 0.313,-0.507 0.331,-0.507C0.356,-0.507 0.379,-0.503 0.397,-0.494C0.416,-0.486 0.432,-0.474 0.445,-0.459C0.458,-0.444 0.467,-0.426 0.473,-0.405C0.48,-0.383 0.483,-0.359 0.483,-0.333L0.483,-0L0.364,-0Z" style="fill:rgb(255,240,155);fill-rule:nonzero;"/>
                    </g>
                    <g transform="matrix(12,0,0,12,26.3906,20.2793)">
                        <path d="M0.469,-0.019C0.446,-0.01 0.422,-0.003 0.396,0.002C0.371,0.007 0.345,0.009 0.318,0.009C0.278,0.009 0.243,0.003 0.212,-0.007C0.181,-0.018 0.154,-0.034 0.132,-0.055C0.111,-0.076 0.094,-0.103 0.082,-0.134C0.071,-0.165 0.065,-0.201 0.065,-0.242C0.065,-0.282 0.071,-0.318 0.084,-0.35C0.096,-0.382 0.114,-0.41 0.137,-0.433C0.16,-0.455 0.187,-0.473 0.219,-0.485C0.251,-0.498 0.287,-0.504 0.326,-0.504C0.358,-0.504 0.385,-0.502 0.407,-0.499C0.429,-0.495 0.449,-0.491 0.467,-0.486L0.467,-0.37C0.447,-0.38 0.425,-0.388 0.401,-0.394C0.378,-0.399 0.355,-0.402 0.334,-0.402C0.312,-0.402 0.292,-0.398 0.274,-0.391C0.257,-0.383 0.242,-0.373 0.23,-0.359C0.218,-0.346 0.209,-0.33 0.202,-0.311C0.196,-0.292 0.193,-0.271 0.193,-0.248C0.193,-0.224 0.196,-0.203 0.203,-0.184C0.21,-0.165 0.22,-0.149 0.232,-0.136C0.245,-0.123 0.26,-0.113 0.277,-0.106C0.295,-0.099 0.314,-0.095 0.336,-0.095C0.346,-0.095 0.357,-0.096 0.369,-0.097C0.38,-0.099 0.392,-0.101 0.404,-0.104C0.415,-0.107 0.427,-0.11 0.438,-0.113C0.449,-0.117 0.459,-0.121 0.469,-0.125L0.469,-0.019Z" style="fill:rgb(255,240,155);fill-rule:nonzero;"/>
                    </g>
                    <g transform="matrix(12,0,0,12,32.9883,20.2793)">
                        <path d="M0.422,-0L0.41,-0.361L0.406,-0.505L0.375,-0.407L0.304,-0.19L0.229,-0.19L0.165,-0.407L0.138,-0.505L0.135,-0.364L0.124,-0L0.022,-0L0.053,-0.638L0.189,-0.638L0.245,-0.457L0.272,-0.355L0.299,-0.451L0.358,-0.638L0.496,-0.638L0.528,-0L0.422,-0Z" style="fill:rgb(255,240,155);fill-rule:nonzero;"/>
                    </g>
                    <g transform="matrix(12,0,0,12,39.5859,20.2793)">
                        <path d="M0.096,-0L0.096,-0.638L0.218,-0.638L0.218,-0.103L0.488,-0.103L0.488,-0L0.096,-0Z" style="fill:rgb(255,240,155);fill-rule:nonzero;"/>
                    </g>
                    <g transform="matrix(12,0,0,12,13.1953,32.2793)">
                        <path d="M0.379,0.011L0.05,-0.266L0.379,-0.543L0.455,-0.466L0.213,-0.267L0.455,-0.066L0.379,0.011Z" style="fill:rgb(255,240,155);fill-rule:nonzero;"/>
                    </g>
                    <g transform="matrix(12,0,0,12,19.793,32.2793)">
                        <path d="M0.498,-0.193C0.498,-0.158 0.492,-0.128 0.479,-0.102C0.466,-0.076 0.448,-0.055 0.425,-0.038C0.402,-0.022 0.374,-0.009 0.342,-0.001C0.31,0.007 0.276,0.011 0.238,0.011C0.204,0.011 0.172,0.009 0.141,0.005C0.109,0.001 0.078,-0.005 0.048,-0.014L0.048,-0.133C0.063,-0.128 0.078,-0.123 0.095,-0.118C0.111,-0.114 0.127,-0.11 0.144,-0.106C0.16,-0.103 0.177,-0.1 0.193,-0.098C0.209,-0.096 0.225,-0.095 0.24,-0.095C0.263,-0.095 0.282,-0.097 0.298,-0.101C0.314,-0.105 0.327,-0.11 0.337,-0.117C0.347,-0.124 0.355,-0.132 0.359,-0.142C0.364,-0.151 0.366,-0.161 0.366,-0.173C0.366,-0.188 0.362,-0.202 0.353,-0.212C0.344,-0.223 0.332,-0.232 0.317,-0.24C0.303,-0.248 0.286,-0.256 0.267,-0.262C0.249,-0.269 0.23,-0.276 0.21,-0.283C0.191,-0.291 0.172,-0.299 0.153,-0.309C0.134,-0.318 0.118,-0.33 0.103,-0.344C0.088,-0.358 0.077,-0.374 0.068,-0.394C0.059,-0.413 0.054,-0.437 0.054,-0.464C0.054,-0.489 0.059,-0.513 0.068,-0.535C0.077,-0.558 0.091,-0.577 0.111,-0.594C0.13,-0.611 0.155,-0.624 0.186,-0.634C0.217,-0.644 0.254,-0.649 0.297,-0.649C0.31,-0.649 0.323,-0.648 0.337,-0.647C0.351,-0.646 0.364,-0.645 0.378,-0.643C0.391,-0.641 0.404,-0.639 0.417,-0.636C0.429,-0.634 0.441,-0.632 0.451,-0.629L0.451,-0.519C0.441,-0.523 0.429,-0.527 0.417,-0.53C0.405,-0.533 0.392,-0.536 0.379,-0.538C0.365,-0.541 0.352,-0.543 0.339,-0.544C0.326,-0.545 0.313,-0.546 0.301,-0.546C0.28,-0.546 0.262,-0.544 0.247,-0.541C0.232,-0.537 0.22,-0.533 0.211,-0.527C0.201,-0.521 0.195,-0.513 0.19,-0.504C0.186,-0.496 0.184,-0.486 0.184,-0.475C0.184,-0.462 0.189,-0.45 0.198,-0.441C0.206,-0.431 0.218,-0.422 0.233,-0.415C0.248,-0.407 0.265,-0.4 0.283,-0.393C0.302,-0.387 0.321,-0.379 0.341,-0.372C0.361,-0.364 0.38,-0.355 0.399,-0.346C0.417,-0.336 0.434,-0.324 0.449,-0.31C0.464,-0.296 0.476,-0.28 0.485,-0.26C0.494,-0.241 0.498,-0.219 0.498,-0.193Z" style="fill:rgb(255,240,155);fill-rule:nonzero;"/>
                    </g>
                    <g transform="matrix(12,0,0,12,26.3906,32.2793)">
                        <path d="M0.366,-0.054C0.349,-0.011 0.331,0.026 0.312,0.059C0.294,0.091 0.273,0.118 0.25,0.14C0.228,0.162 0.203,0.178 0.176,0.189C0.148,0.2 0.117,0.205 0.083,0.205C0.075,0.205 0.066,0.205 0.056,0.204C0.047,0.203 0.037,0.202 0.027,0.2L0.027,0.099C0.031,0.1 0.035,0.101 0.04,0.101C0.045,0.102 0.051,0.103 0.056,0.103C0.062,0.104 0.067,0.104 0.073,0.104C0.079,0.105 0.084,0.105 0.089,0.105C0.103,0.105 0.115,0.102 0.127,0.097C0.139,0.092 0.149,0.085 0.159,0.075C0.169,0.066 0.178,0.055 0.187,0.042C0.195,0.029 0.202,0.015 0.208,-0L0.011,-0.496L0.144,-0.496L0.247,-0.215L0.278,-0.124L0.308,-0.211L0.412,-0.496L0.54,-0.496L0.366,-0.054Z" style="fill:rgb(255,240,155);fill-rule:nonzero;"/>
                    </g>
                    <g transform="matrix(12,0,0,12,32.9883,32.2793)">
                        <path d="M0.364,-0L0.364,-0.323C0.364,-0.378 0.344,-0.405 0.303,-0.405C0.283,-0.405 0.264,-0.397 0.245,-0.38C0.227,-0.364 0.208,-0.342 0.187,-0.314L0.187,-0L0.068,-0L0.068,-0.496L0.171,-0.496L0.174,-0.423C0.184,-0.436 0.194,-0.447 0.205,-0.458C0.216,-0.468 0.228,-0.477 0.241,-0.484C0.253,-0.491 0.267,-0.497 0.282,-0.501C0.296,-0.505 0.313,-0.507 0.331,-0.507C0.356,-0.507 0.379,-0.503 0.397,-0.494C0.416,-0.486 0.432,-0.474 0.445,-0.459C0.458,-0.444 0.467,-0.426 0.473,-0.405C0.48,-0.383 0.483,-0.359 0.483,-0.333L0.483,-0L0.364,-0Z" style="fill:rgb(255,240,155);fill-rule:nonzero;"/>
                    </g>
                    <g transform="matrix(12,0,0,12,39.5859,32.2793)">
                        <path d="M0.469,-0.019C0.446,-0.01 0.422,-0.003 0.396,0.002C0.371,0.007 0.345,0.009 0.318,0.009C0.278,0.009 0.243,0.003 0.212,-0.007C0.181,-0.018 0.154,-0.034 0.132,-0.055C0.111,-0.076 0.094,-0.103 0.082,-0.134C0.071,-0.165 0.065,-0.201 0.065,-0.242C0.065,-0.282 0.071,-0.318 0.084,-0.35C0.096,-0.382 0.114,-0.41 0.137,-0.433C0.16,-0.455 0.187,-0.473 0.219,-0.485C0.251,-0.498 0.287,-0.504 0.326,-0.504C0.358,-0.504 0.385,-0.502 0.407,-0.499C0.429,-0.495 0.449,-0.491 0.467,-0.486L0.467,-0.37C0.447,-0.38 0.425,-0.388 0.401,-0.394C0.378,-0.399 0.355,-0.402 0.334,-0.402C0.312,-0.402 0.292,-0.398 0.274,-0.391C0.257,-0.383 0.242,-0.373 0.23,-0.359C0.218,-0.346 0.209,-0.33 0.202,-0.311C0.196,-0.292 0.193,-0.271 0.193,-0.248C0.193,-0.224 0.196,-0.203 0.203,-0.184C0.21,-0.165 0.22,-0.149 0.232,-0.136C0.245,-0.123 0.26,-0.113 0.277,-0.106C0.295,-0.099 0.314,-0.095 0.336,-0.095C0.346,-0.095 0.357,-0.096 0.369,-0.097C0.38,-0.099 0.392,-0.101 0.404,-0.104C0.415,-0.107 0.427,-0.11 0.438,-0.113C0.449,-0.117 0.459,-0.121 0.469,-0.125L0.469,-0.019Z" style="fill:rgb(255,240,155);fill-rule:nonzero;"/>
                    </g>
                    <g transform="matrix(12,0,0,12,46.1836,32.2793)">
                        <path d="M0.063,-0L0.063,-0.638L0.269,-0.638C0.342,-0.638 0.396,-0.625 0.432,-0.6C0.469,-0.575 0.487,-0.536 0.487,-0.485C0.487,-0.469 0.485,-0.453 0.481,-0.438C0.477,-0.423 0.472,-0.409 0.464,-0.396C0.456,-0.384 0.446,-0.373 0.435,-0.363C0.423,-0.353 0.409,-0.345 0.393,-0.34C0.409,-0.337 0.424,-0.332 0.439,-0.324C0.453,-0.317 0.466,-0.307 0.477,-0.295C0.488,-0.282 0.496,-0.268 0.503,-0.251C0.509,-0.235 0.512,-0.216 0.512,-0.196C0.512,-0.131 0.49,-0.082 0.447,-0.049C0.403,-0.016 0.34,-0 0.258,-0L0.063,-0ZM0.362,-0.464C0.362,-0.476 0.36,-0.487 0.356,-0.497C0.352,-0.506 0.346,-0.515 0.337,-0.521C0.329,-0.528 0.317,-0.534 0.304,-0.537C0.29,-0.541 0.274,-0.543 0.255,-0.543L0.182,-0.543L0.182,-0.374L0.255,-0.374C0.274,-0.374 0.291,-0.376 0.304,-0.381C0.318,-0.386 0.329,-0.392 0.338,-0.401C0.346,-0.409 0.352,-0.418 0.356,-0.429C0.36,-0.44 0.362,-0.451 0.362,-0.464ZM0.266,-0.098C0.285,-0.098 0.302,-0.101 0.317,-0.105C0.331,-0.11 0.343,-0.117 0.353,-0.126C0.363,-0.134 0.37,-0.145 0.375,-0.156C0.38,-0.168 0.383,-0.181 0.383,-0.194C0.383,-0.222 0.372,-0.243 0.352,-0.259C0.331,-0.274 0.299,-0.282 0.257,-0.282L0.182,-0.282L0.182,-0.098L0.266,-0.098Z" style="fill:rgb(255,240,155);fill-rule:nonzero;"/>
                    </g>
                    <g transform="matrix(12,0,0,12,26.3906,44.2793)">
                        <path d="M0.379,0.011L0.05,-0.266L0.379,-0.543L0.455,-0.466L0.213,-0.267L0.455,-0.066L0.379,0.011Z" style="fill:rgb(255,240,155);fill-rule:nonzero;"/>
                    </g>
                    <g transform="matrix(12,0,0,12,32.9883,44.2793)">
                        <path d="M0.385,-0L0.295,-0.205C0.286,-0.225 0.275,-0.239 0.26,-0.249C0.244,-0.259 0.227,-0.264 0.206,-0.264L0.183,-0.264L0.183,-0L0.063,-0L0.063,-0.638L0.249,-0.638C0.284,-0.638 0.316,-0.635 0.345,-0.629C0.373,-0.623 0.398,-0.613 0.418,-0.599C0.438,-0.585 0.454,-0.567 0.465,-0.544C0.476,-0.522 0.481,-0.494 0.481,-0.462C0.481,-0.438 0.478,-0.418 0.471,-0.399C0.464,-0.381 0.454,-0.365 0.442,-0.352C0.43,-0.339 0.415,-0.328 0.398,-0.32C0.381,-0.312 0.362,-0.306 0.342,-0.303C0.357,-0.3 0.372,-0.291 0.385,-0.277C0.398,-0.262 0.411,-0.241 0.424,-0.214L0.526,-0L0.385,-0ZM0.355,-0.45C0.355,-0.481 0.345,-0.504 0.325,-0.518C0.305,-0.531 0.276,-0.538 0.236,-0.538L0.183,-0.538L0.183,-0.358L0.232,-0.358C0.25,-0.358 0.267,-0.36 0.282,-0.364C0.298,-0.368 0.311,-0.374 0.321,-0.381C0.332,-0.389 0.34,-0.399 0.346,-0.41C0.352,-0.422 0.355,-0.435 0.355,-0.45Z" style="fill:rgb(255,240,155);fill-rule:nonzero;"/>
                    </g>
                    <g transform="matrix(12,0,0,12,39.5859,44.2793)">
                        <path d="M0.5,-0.286C0.5,-0.278 0.5,-0.267 0.499,-0.254C0.499,-0.241 0.498,-0.229 0.497,-0.218L0.171,-0.218C0.171,-0.196 0.174,-0.177 0.181,-0.16C0.188,-0.144 0.197,-0.13 0.209,-0.118C0.221,-0.107 0.236,-0.099 0.253,-0.093C0.27,-0.087 0.289,-0.084 0.31,-0.084C0.334,-0.084 0.36,-0.086 0.387,-0.09C0.415,-0.093 0.444,-0.099 0.473,-0.108L0.473,-0.013C0.46,-0.01 0.447,-0.006 0.432,-0.003C0.417,-0 0.401,0.002 0.386,0.004C0.37,0.007 0.354,0.008 0.338,0.01C0.322,0.011 0.307,0.011 0.292,0.011C0.254,0.011 0.22,0.006 0.19,-0.005C0.16,-0.016 0.135,-0.031 0.114,-0.052C0.093,-0.073 0.077,-0.099 0.066,-0.13C0.055,-0.161 0.05,-0.197 0.05,-0.238C0.05,-0.278 0.055,-0.315 0.066,-0.348C0.077,-0.381 0.093,-0.409 0.113,-0.433C0.133,-0.456 0.158,-0.475 0.187,-0.488C0.216,-0.5 0.248,-0.507 0.283,-0.507C0.318,-0.507 0.349,-0.501 0.376,-0.49C0.403,-0.48 0.426,-0.464 0.444,-0.445C0.463,-0.425 0.476,-0.402 0.486,-0.375C0.495,-0.348 0.5,-0.318 0.5,-0.286ZM0.379,-0.303C0.379,-0.323 0.377,-0.34 0.372,-0.354C0.366,-0.369 0.359,-0.381 0.35,-0.39C0.341,-0.4 0.331,-0.407 0.319,-0.411C0.307,-0.416 0.294,-0.418 0.281,-0.418C0.251,-0.418 0.226,-0.408 0.207,-0.388C0.188,-0.368 0.176,-0.34 0.173,-0.303L0.379,-0.303Z" style="fill:rgb(255,240,155);fill-rule:nonzero;"/>
                    </g>
                    <g transform="matrix(12,0,0,12,46.1836,44.2793)">
                        <path d="M0.514,-0.257C0.514,-0.211 0.508,-0.172 0.495,-0.139C0.482,-0.105 0.464,-0.078 0.441,-0.056C0.418,-0.034 0.391,-0.018 0.36,-0.007C0.329,0.003 0.295,0.009 0.258,0.009C0.245,0.009 0.233,0.008 0.221,0.006C0.208,0.005 0.197,0.003 0.187,-0L0.187,0.194L0.068,0.194L0.068,-0.496L0.171,-0.496L0.174,-0.423C0.184,-0.436 0.194,-0.447 0.205,-0.458C0.216,-0.468 0.228,-0.477 0.241,-0.484C0.253,-0.491 0.267,-0.497 0.282,-0.501C0.296,-0.505 0.313,-0.507 0.331,-0.507C0.36,-0.507 0.386,-0.501 0.409,-0.489C0.432,-0.478 0.451,-0.461 0.467,-0.439C0.482,-0.418 0.494,-0.391 0.502,-0.361C0.51,-0.33 0.514,-0.295 0.514,-0.257ZM0.389,-0.252C0.389,-0.279 0.387,-0.303 0.383,-0.322C0.379,-0.341 0.374,-0.357 0.366,-0.369C0.359,-0.382 0.35,-0.391 0.34,-0.396C0.329,-0.402 0.317,-0.405 0.303,-0.405C0.283,-0.405 0.264,-0.397 0.245,-0.38C0.227,-0.364 0.208,-0.342 0.187,-0.314L0.187,-0.097C0.196,-0.094 0.208,-0.091 0.222,-0.088C0.236,-0.086 0.25,-0.085 0.264,-0.085C0.283,-0.085 0.3,-0.089 0.316,-0.097C0.331,-0.104 0.344,-0.116 0.355,-0.13C0.366,-0.144 0.375,-0.162 0.38,-0.182C0.386,-0.203 0.389,-0.226 0.389,-0.252Z" style="fill:rgb(255,240,155);fill-rule:nonzero;"/>
                    </g>
                    <g transform="matrix(12,0,0,12,39.5859,56.2793)">
                        <path d="M0.379,0.011L0.05,-0.266L0.379,-0.543L0.455,-0.466L0.213,-0.267L0.455,-0.066L0.379,0.011Z" style="fill:rgb(255,240,155);fill-rule:nonzero;"/>
                    </g>
                    <g transform="matrix(12,0,0,12,46.1836,56.2793)">
                        <path d="M0.49,-0.025C0.462,-0.014 0.434,-0.005 0.408,0C0.381,0.006 0.354,0.009 0.325,0.009C0.279,0.009 0.239,0.002 0.203,-0.011C0.168,-0.025 0.138,-0.045 0.114,-0.072C0.09,-0.098 0.071,-0.132 0.059,-0.171C0.046,-0.211 0.04,-0.257 0.04,-0.309C0.04,-0.363 0.047,-0.411 0.061,-0.452C0.074,-0.494 0.094,-0.53 0.119,-0.558C0.145,-0.587 0.175,-0.609 0.212,-0.624C0.248,-0.639 0.289,-0.647 0.334,-0.647C0.349,-0.647 0.362,-0.647 0.375,-0.646C0.388,-0.645 0.401,-0.644 0.413,-0.642C0.425,-0.641 0.438,-0.638 0.451,-0.635C0.463,-0.632 0.477,-0.629 0.49,-0.624L0.49,-0.505C0.463,-0.518 0.436,-0.527 0.411,-0.533C0.386,-0.538 0.363,-0.541 0.343,-0.541C0.313,-0.541 0.287,-0.536 0.265,-0.525C0.244,-0.514 0.226,-0.498 0.212,-0.479C0.198,-0.459 0.188,-0.436 0.182,-0.408C0.175,-0.381 0.172,-0.351 0.172,-0.319C0.172,-0.284 0.175,-0.253 0.182,-0.226C0.189,-0.199 0.199,-0.176 0.213,-0.157C0.227,-0.138 0.245,-0.124 0.267,-0.114C0.288,-0.104 0.314,-0.099 0.344,-0.099C0.355,-0.099 0.367,-0.1 0.379,-0.102C0.392,-0.104 0.404,-0.107 0.417,-0.111C0.43,-0.114 0.443,-0.118 0.455,-0.123C0.468,-0.128 0.479,-0.132 0.49,-0.137L0.49,-0.025Z" style="fill:rgb(255,240,155);fill-rule:nonzero;"/>
                    </g>
                    <g transform="matrix(12,0,0,12,39.5859,68.2793)">
                        <path d="M0.379,0.011L0.05,-0.266L0.379,-0.543L0.455,-0.466L0.213,-0.267L0.455,-0.066L0.379,0.011Z" style="fill:rgb(255,240,155);fill-rule:nonzero;"/>
                    </g>
                    <g transform="matrix(12,0,0,12,46.1836,68.2793)">
                        <path d="M0.073,-0.54L0.073,-0.638L0.477,-0.638L0.477,-0.54L0.336,-0.54L0.336,-0.099L0.477,-0.099L0.477,-0L0.073,-0L0.073,-0.099L0.214,-0.099L0.214,-0.54L0.073,-0.54Z" style="fill:rgb(255,240,155);fill-rule:nonzero;"/>
                    </g>
                    <g transform="matrix(12,0,0,12,52.7812,68.2793)">
                        <path d="M0.171,-0.543L0.5,-0.266L0.171,0.011L0.095,-0.066L0.337,-0.265L0.095,-0.466L0.171,-0.543Z" style="fill:rgb(255,240,155);fill-rule:nonzero;"/>
                    </g>
                    <g transform="matrix(12,0,0,12,59.3789,68.2793)">
                        <path d="M0.46,-0.564L0.189,-0.564L0.189,-0.357L0.446,-0.357L0.446,-0.284L0.189,-0.284L0.189,-0L0.1,-0L0.1,-0.638L0.46,-0.638L0.46,-0.564Z" style="fill:rgb(255,240,155);fill-rule:nonzero;"/>
                    </g>
                    <g transform="matrix(12,0,0,12,65.9766,68.2793)">
                        <path d="M0.46,-0.564L0.189,-0.564L0.189,-0.357L0.446,-0.357L0.446,-0.284L0.189,-0.284L0.189,-0L0.1,-0L0.1,-0.638L0.46,-0.638L0.46,-0.564Z" style="fill:rgb(255,240,155);fill-rule:nonzero;"/>
                    </g>
                    <g transform="matrix(12,0,0,12,72.5742,68.2793)">
                        <path d="M0.514,-0.326C0.514,-0.296 0.512,-0.266 0.507,-0.238C0.502,-0.21 0.495,-0.184 0.484,-0.16C0.474,-0.136 0.46,-0.114 0.444,-0.094C0.427,-0.075 0.407,-0.058 0.383,-0.044C0.359,-0.03 0.331,-0.019 0.299,-0.011C0.267,-0.004 0.231,-0 0.19,-0L0.053,-0L0.053,-0.638L0.218,-0.638C0.317,-0.638 0.392,-0.613 0.441,-0.561C0.49,-0.51 0.514,-0.432 0.514,-0.326ZM0.423,-0.32C0.423,-0.365 0.419,-0.403 0.41,-0.435C0.402,-0.466 0.389,-0.491 0.372,-0.51C0.354,-0.529 0.333,-0.543 0.307,-0.552C0.281,-0.561 0.25,-0.565 0.215,-0.565L0.14,-0.565L0.14,-0.075L0.205,-0.075C0.35,-0.075 0.423,-0.157 0.423,-0.32Z" style="fill:rgb(255,240,155);fill-rule:nonzero;"/>
                    </g>
                    <g transform="matrix(12,0,0,12,79.1719,68.2793)">
                        <path d="M0.489,-0.355C0.489,-0.293 0.481,-0.239 0.466,-0.195C0.451,-0.15 0.429,-0.113 0.4,-0.084C0.371,-0.055 0.334,-0.034 0.291,-0.021C0.248,-0.007 0.198,-0 0.141,-0L0.088,-0L0.088,-0.074L0.147,-0.074C0.189,-0.074 0.225,-0.078 0.256,-0.087C0.286,-0.095 0.312,-0.108 0.332,-0.124C0.353,-0.141 0.368,-0.161 0.379,-0.184C0.39,-0.208 0.396,-0.235 0.399,-0.265L0.401,-0.285C0.38,-0.273 0.357,-0.263 0.33,-0.256C0.303,-0.249 0.274,-0.245 0.243,-0.245C0.211,-0.245 0.183,-0.25 0.158,-0.259C0.134,-0.269 0.114,-0.282 0.097,-0.299C0.081,-0.316 0.069,-0.336 0.061,-0.359C0.053,-0.382 0.049,-0.408 0.049,-0.435C0.049,-0.465 0.054,-0.492 0.065,-0.518C0.076,-0.544 0.091,-0.566 0.11,-0.585C0.129,-0.604 0.153,-0.619 0.18,-0.63C0.207,-0.641 0.236,-0.647 0.269,-0.647C0.301,-0.647 0.33,-0.642 0.357,-0.631C0.384,-0.621 0.407,-0.604 0.426,-0.581C0.446,-0.558 0.461,-0.527 0.472,-0.49C0.483,-0.453 0.489,-0.408 0.489,-0.355ZM0.265,-0.577C0.247,-0.577 0.23,-0.574 0.215,-0.568C0.199,-0.562 0.186,-0.553 0.175,-0.542C0.163,-0.53 0.154,-0.516 0.148,-0.499C0.141,-0.482 0.138,-0.463 0.138,-0.441C0.138,-0.421 0.141,-0.403 0.145,-0.388C0.15,-0.372 0.157,-0.359 0.167,-0.348C0.177,-0.337 0.19,-0.329 0.206,-0.323C0.221,-0.317 0.24,-0.314 0.261,-0.314C0.273,-0.314 0.286,-0.315 0.299,-0.317C0.311,-0.32 0.324,-0.323 0.336,-0.327C0.348,-0.331 0.36,-0.335 0.371,-0.34C0.382,-0.346 0.392,-0.351 0.401,-0.357C0.401,-0.399 0.398,-0.434 0.392,-0.462C0.385,-0.49 0.376,-0.513 0.365,-0.53C0.353,-0.547 0.339,-0.559 0.322,-0.566C0.305,-0.574 0.286,-0.577 0.265,-0.577Z" style="fill:rgb(255,240,155);fill-rule:nonzero;"/>
                    </g>
                    <g transform="matrix(12,0,0,12,85.7695,68.2793)">
                        <path d="M0.507,-0.319C0.507,-0.27 0.502,-0.226 0.492,-0.185C0.482,-0.145 0.468,-0.111 0.448,-0.082C0.428,-0.053 0.403,-0.031 0.374,-0.015C0.344,0.001 0.31,0.009 0.27,0.009C0.236,0.009 0.205,0.002 0.177,-0.01C0.149,-0.023 0.125,-0.043 0.105,-0.07C0.085,-0.097 0.07,-0.131 0.059,-0.172C0.048,-0.213 0.043,-0.262 0.043,-0.319C0.043,-0.368 0.048,-0.412 0.058,-0.453C0.068,-0.493 0.083,-0.528 0.102,-0.556C0.122,-0.585 0.147,-0.608 0.176,-0.623C0.206,-0.639 0.24,-0.647 0.28,-0.647C0.314,-0.647 0.345,-0.641 0.373,-0.628C0.401,-0.615 0.425,-0.595 0.445,-0.568C0.465,-0.541 0.48,-0.507 0.491,-0.466C0.501,-0.424 0.507,-0.375 0.507,-0.319ZM0.421,-0.316C0.421,-0.327 0.42,-0.338 0.42,-0.349C0.419,-0.36 0.418,-0.37 0.417,-0.381L0.147,-0.18C0.152,-0.163 0.158,-0.148 0.166,-0.133C0.173,-0.119 0.182,-0.107 0.193,-0.096C0.203,-0.086 0.215,-0.078 0.229,-0.073C0.242,-0.067 0.258,-0.064 0.275,-0.064C0.297,-0.064 0.317,-0.069 0.335,-0.08C0.353,-0.091 0.369,-0.107 0.381,-0.128C0.394,-0.149 0.404,-0.175 0.411,-0.207C0.417,-0.238 0.421,-0.275 0.421,-0.316ZM0.129,-0.322C0.129,-0.312 0.129,-0.302 0.129,-0.292C0.129,-0.281 0.13,-0.272 0.131,-0.262L0.401,-0.462C0.396,-0.479 0.39,-0.494 0.382,-0.507C0.375,-0.521 0.366,-0.533 0.355,-0.543C0.345,-0.553 0.333,-0.56 0.32,-0.566C0.306,-0.571 0.292,-0.574 0.275,-0.574C0.253,-0.574 0.233,-0.569 0.215,-0.558C0.197,-0.547 0.181,-0.531 0.168,-0.51C0.156,-0.489 0.146,-0.462 0.139,-0.431C0.132,-0.399 0.129,-0.363 0.129,-0.322Z" style="fill:rgb(255,240,155);fill-rule:nonzero;"/>
                    </g>
                    <g transform="matrix(12,0,0,12,92.3672,68.2793)">
                        <path d="M0.507,-0.319C0.507,-0.27 0.502,-0.226 0.492,-0.185C0.482,-0.145 0.468,-0.111 0.448,-0.082C0.428,-0.053 0.403,-0.031 0.374,-0.015C0.344,0.001 0.31,0.009 0.27,0.009C0.236,0.009 0.205,0.002 0.177,-0.01C0.149,-0.023 0.125,-0.043 0.105,-0.07C0.085,-0.097 0.07,-0.131 0.059,-0.172C0.048,-0.213 0.043,-0.262 0.043,-0.319C0.043,-0.368 0.048,-0.412 0.058,-0.453C0.068,-0.493 0.083,-0.528 0.102,-0.556C0.122,-0.585 0.147,-0.608 0.176,-0.623C0.206,-0.639 0.24,-0.647 0.28,-0.647C0.314,-0.647 0.345,-0.641 0.373,-0.628C0.401,-0.615 0.425,-0.595 0.445,-0.568C0.465,-0.541 0.48,-0.507 0.491,-0.466C0.501,-0.424 0.507,-0.375 0.507,-0.319ZM0.421,-0.316C0.421,-0.327 0.42,-0.338 0.42,-0.349C0.419,-0.36 0.418,-0.37 0.417,-0.381L0.147,-0.18C0.152,-0.163 0.158,-0.148 0.166,-0.133C0.173,-0.119 0.182,-0.107 0.193,-0.096C0.203,-0.086 0.215,-0.078 0.229,-0.073C0.242,-0.067 0.258,-0.064 0.275,-0.064C0.297,-0.064 0.317,-0.069 0.335,-0.08C0.353,-0.091 0.369,-0.107 0.381,-0.128C0.394,-0.149 0.404,-0.175 0.411,-0.207C0.417,-0.238 0.421,-0.275 0.421,-0.316ZM0.129,-0.322C0.129,-0.312 0.129,-0.302 0.129,-0.292C0.129,-0.281 0.13,-0.272 0.131,-0.262L0.401,-0.462C0.396,-0.479 0.39,-0.494 0.382,-0.507C0.375,-0.521 0.366,-0.533 0.355,-0.543C0.345,-0.553 0.333,-0.56 0.32,-0.566C0.306,-0.571 0.292,-0.574 0.275,-0.574C0.253,-0.574 0.233,-0.569 0.215,-0.558C0.197,-0.547 0.181,-0.531 0.168,-0.51C0.156,-0.489 0.146,-0.462 0.139,-0.431C0.132,-0.399 0.129,-0.363 0.129,-0.322Z" style="fill:rgb(255,240,155);fill-rule:nonzero;"/>
                    </g>
                </g>
            </g>
        </g>
    </g>
    <g id="Text" transform="matrix(1,0,0,1,1.44201,-0.0600827)">
        <g transform="matrix(1.35824,0,0,1.18679,-4.1017,2.32448)">
            <path d="M40.952,33.685C40.952,32.755 40.293,32 39.48,32C33.313,32 9.597,32 3.431,32C2.617,32 1.958,32.755 1.958,33.685C1.958,36.515 1.958,42.19 1.958,45.02C1.958,45.951 2.617,46.705 3.431,46.705C9.597,46.705 33.313,46.705 39.48,46.705C40.293,46.705 40.952,45.951 40.952,45.02C40.952,42.19 40.952,36.515 40.952,33.685Z" style="fill:rgb(171,146,2);"/>
        </g>
        <g transform="matrix(1,0,0,1,0.492953,5.32649)">
            <g transform="matrix(16,0,0,16,1.35735,49.4014)">
                <path d="M0.536,-0.081L0.502,-0.171L0.211,-0.171L0.177,-0.079C0.163,-0.043 0.152,-0.019 0.143,-0.007C0.133,0.006 0.118,0.012 0.096,0.012C0.078,0.012 0.062,0.006 0.048,-0.008C0.034,-0.021 0.027,-0.036 0.027,-0.053C0.027,-0.063 0.028,-0.073 0.032,-0.083C0.035,-0.094 0.04,-0.108 0.048,-0.127L0.231,-0.592C0.236,-0.605 0.242,-0.621 0.25,-0.64C0.257,-0.659 0.265,-0.674 0.273,-0.687C0.281,-0.699 0.292,-0.709 0.306,-0.717C0.319,-0.724 0.336,-0.728 0.356,-0.728C0.376,-0.728 0.393,-0.724 0.406,-0.717C0.42,-0.709 0.431,-0.699 0.439,-0.687C0.448,-0.675 0.455,-0.662 0.46,-0.648C0.466,-0.634 0.473,-0.616 0.482,-0.593L0.669,-0.131C0.684,-0.096 0.691,-0.07 0.691,-0.054C0.691,-0.038 0.684,-0.022 0.67,-0.009C0.656,0.005 0.64,0.012 0.62,0.012C0.609,0.012 0.599,0.01 0.591,0.006C0.583,0.002 0.576,-0.003 0.57,-0.01C0.565,-0.017 0.559,-0.028 0.552,-0.043C0.546,-0.057 0.541,-0.07 0.536,-0.081ZM0.249,-0.28L0.463,-0.28L0.355,-0.575L0.249,-0.28Z" style="fill:rgb(255,226,114);fill-rule:nonzero;"/>
            </g>
            <g transform="matrix(16,0,0,16,12.8652,49.4014)">
                <path d="M0.168,-0.716L0.357,-0.716C0.406,-0.716 0.448,-0.711 0.483,-0.702C0.519,-0.693 0.55,-0.676 0.579,-0.651C0.654,-0.587 0.691,-0.49 0.691,-0.36C0.691,-0.317 0.687,-0.278 0.68,-0.242C0.672,-0.207 0.661,-0.175 0.645,-0.146C0.629,-0.118 0.609,-0.092 0.585,-0.07C0.566,-0.053 0.545,-0.039 0.522,-0.028C0.499,-0.018 0.475,-0.011 0.448,-0.006C0.422,-0.002 0.393,-0 0.36,-0L0.171,-0C0.145,-0 0.125,-0.004 0.111,-0.012C0.098,-0.02 0.089,-0.031 0.085,-0.046C0.081,-0.06 0.079,-0.079 0.079,-0.102L0.079,-0.627C0.079,-0.658 0.086,-0.681 0.1,-0.695C0.114,-0.709 0.137,-0.716 0.168,-0.716ZM0.224,-0.601L0.224,-0.115L0.334,-0.115C0.358,-0.115 0.377,-0.116 0.391,-0.117C0.404,-0.118 0.418,-0.122 0.433,-0.127C0.448,-0.132 0.46,-0.139 0.471,-0.149C0.52,-0.19 0.544,-0.261 0.544,-0.361C0.544,-0.431 0.533,-0.484 0.512,-0.52C0.491,-0.555 0.464,-0.577 0.433,-0.587C0.402,-0.596 0.364,-0.601 0.32,-0.601L0.224,-0.601Z" style="fill:rgb(255,226,114);fill-rule:nonzero;"/>
            </g>
            <g transform="matrix(16,0,0,16,24.7089,49.4014)">
                <path d="M0.32,-0.108L0.205,-0.564L0.205,-0.07C0.205,-0.042 0.199,-0.022 0.187,-0.008C0.175,0.005 0.158,0.012 0.138,0.012C0.119,0.012 0.103,0.005 0.09,-0.008C0.078,-0.022 0.072,-0.042 0.072,-0.07L0.072,-0.636C0.072,-0.667 0.08,-0.689 0.096,-0.699C0.112,-0.71 0.134,-0.716 0.162,-0.716L0.207,-0.716C0.234,-0.716 0.254,-0.713 0.266,-0.708C0.278,-0.704 0.287,-0.695 0.293,-0.682C0.299,-0.669 0.306,-0.649 0.313,-0.62L0.417,-0.228L0.521,-0.62C0.528,-0.649 0.535,-0.669 0.541,-0.682C0.547,-0.695 0.556,-0.704 0.568,-0.708C0.58,-0.713 0.6,-0.716 0.627,-0.716L0.672,-0.716C0.7,-0.716 0.722,-0.71 0.738,-0.699C0.754,-0.689 0.762,-0.667 0.762,-0.636L0.762,-0.07C0.762,-0.042 0.756,-0.022 0.744,-0.008C0.732,0.005 0.715,0.012 0.695,0.012C0.676,0.012 0.66,0.005 0.647,-0.008C0.635,-0.022 0.629,-0.042 0.629,-0.07L0.629,-0.564L0.514,-0.108C0.507,-0.078 0.501,-0.057 0.496,-0.043C0.491,-0.029 0.482,-0.016 0.47,-0.005C0.457,0.007 0.439,0.012 0.417,0.012C0.4,0.012 0.386,0.009 0.374,0.001C0.362,-0.006 0.353,-0.015 0.347,-0.027C0.34,-0.038 0.335,-0.051 0.331,-0.065C0.328,-0.079 0.324,-0.093 0.32,-0.108Z" style="fill:rgb(255,226,114);fill-rule:nonzero;"/>
            </g>
            <g transform="matrix(16,0,0,16,38.037,49.4014)">
                <path d="M0.052,-0.139L0.212,-0.373L0.077,-0.581C0.064,-0.601 0.055,-0.619 0.049,-0.633C0.042,-0.648 0.039,-0.661 0.039,-0.675C0.039,-0.688 0.045,-0.701 0.057,-0.712C0.07,-0.723 0.084,-0.728 0.102,-0.728C0.122,-0.728 0.138,-0.722 0.149,-0.71C0.16,-0.698 0.176,-0.676 0.196,-0.644L0.303,-0.47L0.418,-0.644C0.427,-0.659 0.435,-0.671 0.442,-0.682C0.449,-0.692 0.455,-0.701 0.461,-0.708C0.468,-0.714 0.475,-0.719 0.482,-0.723C0.49,-0.726 0.499,-0.728 0.509,-0.728C0.527,-0.728 0.542,-0.723 0.553,-0.712C0.565,-0.701 0.571,-0.688 0.571,-0.673C0.571,-0.651 0.558,-0.621 0.533,-0.584L0.392,-0.373L0.544,-0.139C0.558,-0.119 0.568,-0.102 0.574,-0.088C0.58,-0.075 0.583,-0.062 0.583,-0.05C0.583,-0.038 0.58,-0.028 0.575,-0.019C0.569,-0.009 0.561,-0.002 0.551,0.004C0.541,0.009 0.53,0.012 0.517,0.012C0.503,0.012 0.492,0.009 0.482,0.004C0.473,-0.002 0.465,-0.009 0.459,-0.018C0.454,-0.026 0.443,-0.042 0.427,-0.067L0.301,-0.265L0.167,-0.061C0.157,-0.045 0.149,-0.033 0.145,-0.027C0.14,-0.02 0.135,-0.014 0.129,-0.008C0.123,-0.002 0.115,0.003 0.107,0.007C0.098,0.01 0.089,0.012 0.077,0.012C0.06,0.012 0.045,0.007 0.033,-0.004C0.022,-0.015 0.016,-0.03 0.016,-0.051C0.016,-0.075 0.028,-0.104 0.052,-0.139Z" style="fill:rgb(255,226,114);fill-rule:nonzero;"/>
            </g>
        </g>
    </g>
</svg>
